<svg width="1440" height="1828" viewBox="0 0 1440 1828" fill="none" xmlns="http://www.w3.org/2000/svg">
<path opacity="0.88" d="M128.293 184.773C699.339 -209.964 1451.96 343.512 1978.08 136.825C2504.21 -69.8622 1921.65 1469.24 1921.65 1469.24C1921.65 1469.24 1520.94 1979.77 1031.01 1717.04C499.5 1432 126.5 1533 -78.5536 1384.53C-283.607 1236.05 -442.753 579.51 128.293 184.773Z" fill="#FAA634"/>
<path opacity="0.88" d="M117.895 235.427C657.895 -172.572 1413.89 335.427 1917.89 112.427C2421.89 -110.573 1917.89 1412.43 1917.89 1412.43C1917.89 1412.43 1544.5 1934.5 1060.5 1690.5C548.5 1432.38 311 1539 -34.1053 1412.43C-379.211 1285.86 -422.105 643.427 117.895 235.427Z" fill="#F7541F"/>
</svg>
