<svg width="157" height="40" viewBox="0 0 157 40" fill="none" xmlns="http://www.w3.org/2000/svg">
<path d="M58.4331 25.4465C59.1092 18.2231 55.4441 14.5936 49.5729 14.5936C43.8796 14.5936 40.2501 18.4366 40.2501 23.774C40.2501 29.3962 43.844 33.1324 49.8932 33.1324C52.5619 33.1324 55.5864 32.2073 57.4368 30.2858L54.6613 27.5459C53.665 28.5778 51.5656 29.1827 49.9643 29.1827C46.9042 29.1827 45.0183 27.617 44.7336 25.4465H58.4331ZM44.8048 21.8526C45.4453 19.5752 47.3667 18.4366 49.7152 18.4366C52.2061 18.4366 53.9852 19.5752 54.2699 21.8526H44.8048Z" fill="#011A33"/>
<path d="M61.7782 15.1273V32.6698H66.1193V23.4182C66.1193 20.1802 68.2187 18.9703 70.4961 18.9703C71.9194 18.9703 72.7378 19.3617 73.6274 20.109L75.5844 16.3372C74.6237 15.3764 72.8801 14.6648 71.0654 14.6648C69.2862 14.6648 67.4715 14.985 66.1193 17.1556L65.7991 15.1273H61.7782Z" fill="#011A33"/>
<path d="M86.921 18.7568C89.6965 18.7568 91.9026 20.7139 91.9026 23.8808C91.9026 26.9409 89.6965 29.0404 86.921 29.0404C84.1811 29.0404 81.8326 27.0477 81.8326 23.8808C81.8326 20.8207 84.1811 18.7568 86.921 18.7568ZM77.2068 7.79722V32.6698H81.2633L81.548 30.2502C82.9001 32.3496 85.0707 33.0612 87.2057 33.0612C92.3652 33.0612 96.2438 29.6453 96.2438 23.8808C96.2438 17.8317 92.4364 14.7004 87.3124 14.7004C85.4621 14.7004 82.5799 15.6967 81.548 17.5114V7.79722H77.2068Z" fill="#011A33"/>
<path d="M103.787 15.0562V32.6698H99.4463V15.0562H103.787ZM99.0549 10.1813C99.0549 13.5617 104.179 13.5617 104.179 10.1813C104.179 6.8009 99.0549 6.8009 99.0549 10.1813Z" fill="#011A33"/>
<path d="M107.717 7.79722V32.6698H112.022V7.79722H107.717Z" fill="#011A33"/>
<path d="M120.154 15.0562V32.6698H115.813V15.0562H120.154ZM115.422 10.1813C115.422 13.5617 120.546 13.5617 120.546 10.1813C120.546 6.8009 115.422 6.8009 115.422 10.1813Z" fill="#011A33"/>
<path d="M125.863 10.6439V15.1629H122.589V18.8992H125.863V26.4784C125.863 30.8551 128.353 33.0257 132.161 32.8833C133.477 32.8477 134.509 32.6342 135.755 32.1361L134.545 28.4354C133.904 28.7557 133.122 28.9692 132.445 28.9692C131.093 28.9692 130.168 28.1508 130.168 26.4784V18.8992H135.043V15.1629H130.204V10.1813L125.863 10.6439Z" fill="#011A33"/>
<path d="M151.559 15.1273L148.357 22.8133L146.542 27.6526L144.87 22.7066L142.201 15.1273H137.148L144.158 32.3852L140.884 40H145.652L156.363 15.1273H151.559Z" fill="#011A33"/>
<path d="M0.900184 17.6182V24.3434C0.900184 29.7876 3.96033 32.9545 8.15914 32.9545C10.6144 32.9545 12.2868 32.1005 14.1015 30.3214L14.3862 32.7055H18.2648V15.1274L13.9592 16.5507V24.0943C13.9592 26.7631 12.1445 29.0048 9.47572 29.0048C6.70023 29.0048 5.24133 26.9766 5.24133 24.3078V16.1949L0.900184 17.6182Z" fill="url(#paint0_linear)"/>
<path d="M29.8162 21.0698L26.3646 14.4157L21.1695 15.4832V15.6256L26.934 23.7741L20.8137 32.5631V32.6699H26.0088L29.8162 26.7987L33.6236 32.6699H38.8187V32.5631L32.6984 23.7741L40.2247 11.916L33.2678 13.7041L29.8162 21.0698Z" fill="url(#paint1_linear)"/>
<path d="M39.6435 2.61789C39.9241 4.33618 38.7441 5.95166 37.0218 6.20692L1.90921 11.4112C0.984977 11.5481 0.128982 10.898 0.0130056 9.97085C-0.0927796 9.12522 0.457064 8.33622 1.28702 8.1427L35.856 0.0823625C37.6143 -0.327626 39.3525 0.835985 39.6435 2.61789Z" fill="url(#paint2_linear)"/>
<defs>
<linearGradient id="paint0_linear" x1="38.0459" y1="5.03396" x2="-5.11095" y2="21.4799" gradientUnits="userSpaceOnUse">
<stop offset="0.479983" stop-color="#EF8721"/>
<stop offset="1" stop-color="#E7404C"/>
</linearGradient>
<linearGradient id="paint1_linear" x1="38.0459" y1="5.03396" x2="-5.11095" y2="21.4799" gradientUnits="userSpaceOnUse">
<stop offset="0.479983" stop-color="#EF8721"/>
<stop offset="1" stop-color="#E7404C"/>
</linearGradient>
<linearGradient id="paint2_linear" x1="38.0459" y1="5.03396" x2="-5.11095" y2="21.4799" gradientUnits="userSpaceOnUse">
<stop offset="0.479983" stop-color="#EF8721"/>
<stop offset="1" stop-color="#E7404C"/>
</linearGradient>
</defs>
</svg>
