<svg width="189" height="45" viewBox="0 0 189 45" fill="none" xmlns="http://www.w3.org/2000/svg">
<path d="M66.9729 33.7252C65.8393 34.7362 65.1346 35.1345 64.3074 35.1345C62.8674 35.1345 62.0095 34.2767 62.0095 32.4383C62.0095 30.2017 63.1431 28.7617 65.2878 27.8732C65.6555 27.72 66.2682 27.5362 66.9729 27.3523V33.7252ZM74.0811 34.3992C73.4989 35.3184 73.1619 35.5635 72.7023 35.5635C72.1202 35.5635 71.7525 35.1652 71.7525 34.0009V25.7591C71.7525 21.3165 70.0061 19.4476 65.6555 19.4476C60.9065 19.4476 58.2409 21.2859 57.9958 24.1659C58.2409 25.177 59.0069 25.7285 60.1099 25.7285C61.2742 25.7285 62.3159 24.9013 62.4078 22.8178L62.6223 20.6425C63.0818 20.5506 63.4801 20.5199 63.9091 20.5199C66.2376 20.5199 66.9729 21.4697 66.9729 24.6561V26.5251C65.9006 26.8008 64.8282 27.0766 63.9703 27.3217C59.0375 28.7617 57.4443 30.263 57.4443 33.0511C57.4443 35.6248 59.2826 37.218 61.9176 37.218C64.3687 37.218 65.5329 36.2682 67.0955 34.5524C67.5551 36.2069 68.6887 37.218 70.7108 37.218C72.6717 37.218 73.836 36.5133 74.6019 34.8282L74.0811 34.3992Z" fill="black"/>
<path d="M87.4589 34.246C86.7235 34.8281 85.927 35.0426 85.0691 35.0426C82.7099 35.0426 80.9329 33.2656 80.9329 28.2715C80.9329 23.1242 82.8631 21.5617 85.1916 21.5617C85.9576 21.5617 86.7235 21.7761 87.4589 22.3583V34.246ZM92.3917 35.6248V16.5676L92.5142 11.6654L92.0853 11.3896L85.1303 12.7071V13.5037L87.6427 13.7488V21.531C86.4478 20.1216 85.0384 19.4476 83.2614 19.4476C79.0639 19.4476 75.663 22.6953 75.663 28.4553C75.663 34.0009 78.8188 37.218 82.8325 37.218C84.7014 37.218 86.2946 36.452 87.5814 35.1652L87.8265 37.0648L94.3832 36.6971V35.7473L92.3917 35.6248Z" fill="black"/>
<path d="M101.517 27.1685C101.64 22.4195 103.019 20.5199 104.704 20.5199C106.328 20.5199 107.492 21.9293 107.492 24.5949C107.492 26.4945 107.124 27.1991 105.684 27.1991L101.517 27.1685ZM111.322 32.7141C110.311 34.1235 108.993 35.0426 106.849 35.0426C103.969 35.0426 101.671 33.0818 101.517 28.3021H111.935C112.088 27.72 112.118 27.1991 112.118 26.4332C112.118 22.5421 109.637 19.4476 105.041 19.4476C100.66 19.4476 96.2782 22.5114 96.2782 28.2715C96.2782 34.0009 100.016 37.218 105.072 37.218C108.197 37.218 110.648 35.7167 111.904 33.0818L111.322 32.7141Z" fill="black"/>
<path d="M125.107 34.1847C124.311 34.8588 123.79 35.1652 123.024 35.1652C121.798 35.1652 121.002 34.4605 121.002 32.806V21.2246H124.801V19.9684H121.002L121.063 15.0356H117.907L116.314 19.9378L113.587 20.2442V21.2246H116.069V29.0681C116.069 30.3549 116.038 31.2434 116.038 32.4077C116.008 35.8086 117.693 37.218 120.818 37.218C123.177 37.218 124.709 36.3294 125.628 34.675L125.107 34.1847Z" fill="black"/>
<path d="M143.719 35.6554V24.9319L143.841 19.9378L143.443 19.6314L136.795 20.7038V21.3778L138.847 21.7761L138.725 33.1124C137.836 34.0009 136.733 34.583 135.569 34.583C134.098 34.583 133.149 33.8171 133.149 31.366V24.9319L133.332 19.9378L132.934 19.6314L126.132 20.5506V21.3778L128.277 21.8068L128.155 30.9064C128.093 35.5635 130.024 37.218 133.087 37.218C135.324 37.218 137.346 35.8392 138.755 34.0622L138.909 37.126L145.649 36.7277V35.8086L143.719 35.6554Z" fill="black"/>
<path d="M165.24 35.5941C165.178 33.8171 165.148 31.2128 165.148 29.4051V25.3608C165.148 21.3472 163.156 19.4476 160.246 19.4476C158.223 19.4476 156.538 20.1523 154.516 22.4808L154.332 19.7846L153.903 19.4782L147.255 21.4085V22.1438L149.553 22.3889C149.614 23.8595 149.645 24.8706 149.645 26.8621V29.4051C149.645 31.1209 149.614 33.7558 149.583 35.5635L147.531 35.7473V36.6971H156.385V35.7473L154.639 35.5941C154.608 33.7864 154.577 31.1209 154.577 29.4051V23.4919C155.895 22.3276 157.151 21.7455 158.07 21.7455C159.51 21.7455 160.184 22.6034 160.184 24.9932V29.4051C160.184 31.1822 160.154 33.7864 160.123 35.5635L158.193 35.7473V36.6971H167.078V35.7473L165.24 35.5941Z" fill="black"/>
<path d="M173.336 16.4144C174.776 16.4144 175.971 15.3727 175.971 13.9326C175.971 12.462 174.776 11.4203 173.336 11.4203C171.866 11.4203 170.701 12.462 170.701 13.9326C170.701 15.3727 171.866 16.4144 173.336 16.4144ZM175.634 19.4782L168.618 21.3165V22.0519L170.855 22.297C170.947 23.737 170.977 25.1157 170.977 27.1072V33.6639C170.977 37.5243 171.192 41.0784 170.64 42.6716C170.518 43.0699 170.334 43.3763 170.119 43.6214L169.537 42.4572C168.863 41.0784 167.852 40.5882 166.657 40.5882C165.462 40.5882 164.206 41.4461 164.053 42.9167C164.574 43.9891 165.83 45.0002 168.465 45.0002C170.303 45.0002 172.019 44.4793 173.735 42.6716C175.359 40.9559 175.91 39.1176 175.91 34.4605V24.6868L176.002 19.7846L175.634 19.4782Z" fill="black"/>
<path d="M184.081 16.4144C185.551 16.4144 186.746 15.3727 186.746 13.9326C186.746 12.462 185.551 11.4203 184.081 11.4203C182.641 11.4203 181.446 12.462 181.446 13.9326C181.446 15.3727 182.641 16.4144 184.081 16.4144ZM186.716 35.5635C186.685 33.7864 186.654 31.1209 186.654 29.4051V24.6868L186.777 19.7846L186.348 19.4782L179.332 21.3165V22.0519L181.63 22.297C181.691 23.8595 181.722 24.9932 181.722 26.954V29.4051C181.722 31.1209 181.691 33.7558 181.66 35.5635L179.638 35.7473V36.6971H188.585V35.7473L186.716 35.5635Z" fill="black"/>
<path d="M5.42303 25.2382C5.42303 18.988 7.10815 14.3615 10.8767 14.3615C14.6146 14.3615 16.3304 18.988 16.3304 25.2382C16.3304 31.5498 14.6146 36.1456 10.8767 36.1456C7.10815 36.1456 5.42303 31.5498 5.42303 25.2382ZM10.8767 13.1973C5.14728 13.1973 0 17.3335 0 25.2382C0 33.2349 5.11664 37.3098 10.8767 37.3098C16.6674 37.3098 21.7227 33.2042 21.7227 25.2382C21.7227 17.3028 16.6367 13.1973 10.8767 13.1973Z" fill="#FAA634"/>
<path d="M30.8506 19.7846L30.4217 19.4782L23.7731 21.4084V22.1437L26.071 22.3888C26.1323 23.8595 26.1629 24.8706 26.1629 26.8621V29.4051C26.1629 31.1208 26.1323 33.7557 26.1017 35.5328L24.0182 35.7473V36.697H33.9758V35.7473L31.157 35.4715C31.1264 33.6638 31.0958 31.0902 31.0958 29.4051V26.8621C31.6779 24.5948 32.4132 23.2774 33.6388 22.1437L33.9145 22.5114C34.7417 23.6144 35.4771 24.3497 36.6413 24.3497C38.1733 24.3497 38.786 23.2161 38.9086 21.868C38.6022 20.0297 37.3767 19.4475 35.9366 19.4475C34.0983 19.4475 32.0149 21.0407 31.0958 24.1659L30.8506 19.7846Z" fill="#FAA634"/>
<path d="M44.6088 27.1685C44.7313 22.4195 46.1101 20.5199 47.7952 20.5199C49.419 20.5199 50.5833 21.9293 50.5833 24.5948C50.5833 26.4944 50.2157 27.1991 48.7756 27.1991L44.6088 27.1685ZM54.4131 32.714C53.4021 34.1234 52.0846 35.0426 49.9399 35.0426C47.0599 35.0426 44.762 33.0817 44.6088 28.3021H55.0259C55.1791 27.7199 55.2097 27.1991 55.2097 26.4331C55.2097 22.542 52.728 19.4475 48.1322 19.4475C43.7509 19.4475 39.3696 22.5114 39.3696 28.2714C39.3696 34.0009 43.1075 37.2179 48.1629 37.2179C51.288 37.2179 53.7391 35.7166 54.9953 33.0817L54.4131 32.714Z" fill="#FAA634"/>
<path d="M19.2507 3.17083C18.6953 1.48445 16.791 0.662507 15.183 1.41513L3.6568 6.80981C3.11457 7.06359 2.84744 7.68249 3.03469 8.25113C3.21655 8.80339 3.7728 9.1416 4.3468 9.04891L16.9102 7.02017C18.7081 6.72985 19.8203 4.90066 19.2507 3.17083Z" fill="#FAA634"/>
</svg>
