<svg width="110" height="22" viewBox="0 0 110 22" fill="none" xmlns="http://www.w3.org/2000/svg">
<path d="M33.1812 6.75808C32.8604 6.75808 32.5751 6.96219 32.4714 7.26586L30.8403 12.0457C30.604 12.7383 29.6172 12.717 29.4109 12.0149L28.0249 7.29669C27.9311 6.97739 27.6381 6.75808 27.3053 6.75808H26.1298C25.6204 6.75808 25.2592 7.25501 25.4164 7.73953L28.4575 17.113C28.5578 17.4222 28.8459 17.6316 29.1709 17.6316H30.7441C31.066 17.6316 31.352 17.4262 31.4548 17.1212L33.2156 11.8985C33.4441 11.2207 34.4014 11.2171 34.6351 11.8931L36.4444 17.1266C36.5489 17.4288 36.8335 17.6316 37.1533 17.6316H38.6617C38.9878 17.6316 39.2765 17.4209 39.3759 17.1104L42.3785 7.73688C42.5336 7.25289 42.1725 6.75808 41.6643 6.75808H40.622C40.2877 6.75808 39.9937 6.97936 39.9013 7.30063L38.5516 11.9896C38.3486 12.6948 37.3581 12.7189 37.1211 12.0243L35.4973 7.26586C35.3937 6.9622 35.1083 6.75808 34.7875 6.75808H33.1812Z" fill="#999999"/>
<path d="M42.8154 14.6843C42.8154 16.4036 44.222 17.9665 46.4994 17.9665C47.6388 17.9665 48.4893 17.5939 49.0872 17.1074C49.3442 16.8982 49.877 17.2392 49.9437 17.5639C49.9722 17.7028 50.0558 17.6316 50.1976 17.6316H51.4567C51.93 17.6316 52.2974 17.1958 52.2653 16.7236C52.249 16.4844 52.2376 16.2044 52.2376 15.89V10.4868C52.2376 8.321 50.9649 6.42317 47.6158 6.42317C45.2528 6.42317 43.654 7.72568 43.1715 9.31981C43.0613 9.68415 43.3187 10.0366 43.6899 10.1207L44.5796 10.3221C45.0186 10.4215 45.4334 10.102 45.6303 9.6972C45.9625 9.01413 46.6377 8.54428 47.6381 8.54428C49.0671 8.54428 49.6922 9.28109 49.6922 10.1965C49.6922 10.5761 49.5136 10.8887 48.8885 10.978L46.0975 11.4022C44.2443 11.6701 42.8154 12.7418 42.8154 14.6843ZM46.9906 15.9347C45.9636 15.9347 45.4054 15.2648 45.4054 14.528C45.4054 13.6349 46.0529 13.1884 46.8567 13.0544L49.2065 12.7029C49.4623 12.6646 49.6922 12.8628 49.6922 13.1214C49.6922 15.2425 48.4419 15.9347 46.9906 15.9347Z" fill="#999999"/>
<path d="M56.0921 17.6316C56.5063 17.6316 56.8421 17.2958 56.8421 16.8816V4.0498C56.8421 3.63559 56.5063 3.2998 56.0921 3.2998H55.0021C54.5879 3.2998 54.2521 3.63559 54.2521 4.0498V16.8816C54.2521 17.2958 54.5879 17.6316 55.0021 17.6316H56.0921Z" fill="#999999"/>
<path d="M60.9065 17.6316C61.3207 17.6316 61.6565 17.2958 61.6565 16.8816V4.0498C61.6565 3.63559 61.3207 3.2998 60.9065 3.2998H59.8165C59.4023 3.2998 59.0665 3.63559 59.0665 4.0498V16.8816C59.0665 17.2958 59.4023 17.6316 59.8165 17.6316H60.9065Z" fill="#999999"/>
<path d="M66.4993 11.0003C66.0624 11.0003 65.712 10.6202 65.8777 10.2159C66.2372 9.33857 67.0843 8.58893 68.3463 8.58893C69.7634 8.58893 70.5902 9.3056 70.8938 10.2373C71.0253 10.6409 70.6734 11.0003 70.2488 11.0003H66.4993ZM72.02 14.0586C71.6294 13.9351 71.2226 14.1564 71.0091 14.506C70.565 15.2332 69.8084 15.7337 68.5919 15.7337C67.2468 15.7337 66.1206 14.9053 65.7494 13.6669C65.6271 13.2587 65.9773 12.8981 66.4034 12.8981H73.1074C73.3915 12.8981 73.6104 12.7225 73.6271 12.439C73.6337 12.3279 73.6379 12.2032 73.6379 12.072C73.6379 8.63359 71.6731 6.42317 68.324 6.42317C65.5777 6.42317 63.0324 8.70057 63.0324 12.139C63.0324 15.823 65.6447 17.9665 68.5919 17.9665C70.8783 17.9665 72.4806 16.7863 73.234 15.2194C73.4123 14.8486 73.1879 14.4281 72.7957 14.304L72.02 14.0586Z" fill="#999999"/>
<path d="M78.2787 4.18129C78.2787 3.76707 77.943 3.43129 77.5287 3.43129H76.6844C76.2701 3.43129 75.9344 3.76708 75.9344 4.18129V5.06119C75.9344 6.02128 75.4208 6.75808 74.2598 6.75808C73.9515 6.75808 73.7016 7.00799 73.7016 7.31627V8.30781C73.7016 8.72203 74.0374 9.05781 74.4516 9.05781H74.9611C75.3753 9.05781 75.7111 9.3936 75.7111 9.80781V14.528C75.7111 16.5598 76.9614 17.7655 78.9709 17.7655C79.4562 17.7655 79.822 17.7177 80.0836 17.6622C80.3771 17.6 80.5561 17.3254 80.5561 17.0254V16.2751C80.5561 15.8102 80.1279 15.4658 79.663 15.4658C78.703 15.4658 78.2787 15.0639 78.2787 14.1038V9.80781C78.2787 9.3936 78.6145 9.05781 79.0287 9.05781H79.7838C80.198 9.05781 80.5338 8.72203 80.5338 8.30781V7.50808C80.5338 7.09387 80.198 6.75808 79.7838 6.75808H79.0287C78.6145 6.75808 78.2787 6.4223 78.2787 6.00808V4.18129Z" fill="#999999"/>
<path d="M81.9073 14.514C81.5531 14.6122 81.3161 14.9567 81.4358 15.3043C81.8474 16.4999 83.1206 17.9665 85.7808 17.9665C88.5494 17.9665 89.889 16.1356 89.889 14.4834C89.889 12.8758 88.8173 11.6255 86.7632 11.1789L85.1109 10.844C84.4411 10.71 84.0169 10.2858 84.0169 9.70531C84.0169 9.03548 84.6644 8.45497 85.5798 8.45497C86.4807 8.45497 87.003 8.84213 87.291 9.28532C87.5388 9.66665 87.9789 9.97355 88.4162 9.84862L89.1335 9.64366C89.5003 9.53887 89.7359 9.17179 89.5976 8.8163C89.1823 7.74883 88.074 6.42317 85.5798 6.42317C83.3247 6.42317 81.5832 8.03075 81.5832 9.92858C81.5832 11.4245 82.5879 12.6749 84.5081 13.0991L86.1157 13.4563C86.9864 13.6349 87.3883 14.0815 87.3883 14.662C87.3883 15.3318 86.8302 15.9123 85.7584 15.9123C84.7991 15.9123 84.1507 15.4941 83.8133 14.9104C83.5792 14.5053 83.133 14.1742 82.6821 14.2992L81.9073 14.514Z" fill="#999999"/>
<path d="M89.998 17.2618C89.998 17.6143 90.28 17.8963 90.6325 17.8963C90.985 17.8963 91.2748 17.6143 91.2748 17.2618C91.2748 16.9094 90.985 16.6195 90.6325 16.6195C90.28 16.6195 89.998 16.9094 89.998 17.2618Z" fill="#999999"/>
<path d="M91.7288 16.8154C91.7288 17.4185 92.2223 17.9668 93.0212 17.9668C93.4209 17.9668 93.7193 17.836 93.929 17.6654C94.0192 17.592 94.2061 17.7116 94.2295 17.8255C94.2395 17.8743 94.2688 17.8493 94.3186 17.8493H94.5495C94.8246 17.8493 95.04 17.5952 95.0349 17.3202C95.0345 17.2937 95.0342 17.2664 95.0342 17.2383V15.3428C95.0342 14.5831 94.5877 13.9173 93.4128 13.9173C92.6504 13.9173 92.1148 14.3038 91.902 14.8009C91.8178 14.9976 91.9645 15.1983 92.1732 15.2456C92.42 15.3014 92.6499 15.1092 92.8135 14.9162C92.9455 14.7602 93.1489 14.6614 93.4207 14.6614C93.922 14.6614 94.1413 14.9199 94.1413 15.241C94.1413 15.3742 94.0786 15.4838 93.8593 15.5151L92.8802 15.664C92.2301 15.758 91.7288 16.1339 91.7288 16.8154ZM93.1935 17.254C92.8332 17.254 92.6374 17.019 92.6374 16.7605C92.6374 16.4472 92.8646 16.2906 93.1465 16.2436L93.9709 16.1203C94.0606 16.1068 94.1413 16.1763 94.1413 16.2671C94.1413 17.0112 93.7027 17.254 93.1935 17.254Z" fill="#999999"/>
<path d="M97.4328 12.9539C97.5993 12.9539 97.7617 12.8272 97.7617 12.6607V12.4641C97.7617 12.313 97.6732 12.1783 97.5237 12.1565C97.4528 12.1462 97.3713 12.1393 97.284 12.1393C96.5007 12.1393 95.9524 12.6562 95.9524 13.51V13.7019C95.9524 13.8857 95.8034 14.0348 95.6195 14.0348C95.4357 14.0348 95.2866 14.1838 95.2866 14.3677V14.493C95.2866 14.6768 95.4357 14.8259 95.6195 14.8259C95.8034 14.8259 95.9524 14.9749 95.9524 15.1588V17.3911C95.9524 17.6441 96.1576 17.8493 96.4106 17.8493C96.6637 17.8493 96.8688 17.6441 96.8688 17.3911V15.2684C96.8688 15.024 97.067 14.8259 97.3114 14.8259H97.3584C97.5768 14.8259 97.7539 14.6488 97.7539 14.4303C97.7539 14.2119 97.5768 14.0348 97.3584 14.0348H97.3114C97.067 14.0348 96.8688 13.8366 96.8688 13.5922V13.5335C96.8688 13.0635 97.19 12.9539 97.4328 12.9539Z" fill="#999999"/>
<path d="M100.32 14.2556C100.32 14.1135 100.219 13.9878 100.077 13.9878C99.768 13.9878 99.4886 14.0801 99.2776 14.2483C99.1885 14.3193 98.9728 14.2538 98.9728 14.1398C98.9728 14.0818 98.9257 14.0348 98.8677 14.0348H98.5302C98.2858 14.0348 98.0877 14.2329 98.0877 14.4773V17.395C98.0877 17.6459 98.2911 17.8493 98.542 17.8493C98.7929 17.8493 98.9962 17.6459 98.9962 17.395V16.0321C98.9962 15.3193 99.3174 14.912 100.022 14.912C100.179 14.912 100.32 14.7938 100.32 14.6367V14.2556Z" fill="#999999"/>
<path d="M101.137 17.8493C101.386 17.8493 101.588 17.6476 101.588 17.3989V14.4851C101.588 14.2364 101.386 14.0348 101.137 14.0348C100.888 14.0348 100.687 14.2364 100.687 14.4851V17.3989C100.687 17.6476 100.888 17.8493 101.137 17.8493ZM100.546 12.6954C100.546 13.0244 100.812 13.2828 101.133 13.2828C101.462 13.2828 101.729 13.0244 101.729 12.6954C101.729 12.3664 101.462 12.1001 101.133 12.1001C100.812 12.1001 100.546 12.3664 100.546 12.6954Z" fill="#999999"/>
<path d="M104.029 14.7554C104.361 14.7554 104.588 14.879 104.737 15.048C104.906 15.2393 105.161 15.3921 105.401 15.3045C105.609 15.2284 105.73 15.0031 105.625 14.8078C105.368 14.3296 104.843 13.9173 104.021 13.9173C102.924 13.9173 102.07 14.7632 102.07 15.9381C102.07 17.0973 102.924 17.9668 104.044 17.9668C104.842 17.9668 105.366 17.5556 105.639 17.0878C105.752 16.8935 105.633 16.6613 105.422 16.5847C105.193 16.5016 104.945 16.6389 104.784 16.821C104.629 16.9958 104.391 17.1365 104.044 17.1365C103.472 17.1365 102.979 16.7057 102.979 15.9381C102.979 15.1705 103.472 14.7554 104.029 14.7554Z" fill="#999999"/>
<path d="M105.956 16.8154C105.956 17.4185 106.45 17.9668 107.249 17.9668C107.648 17.9668 107.947 17.836 108.156 17.6654C108.246 17.592 108.433 17.7116 108.457 17.8255C108.467 17.8743 108.496 17.8493 108.546 17.8493H108.777C109.052 17.8493 109.267 17.5952 109.262 17.3202C109.262 17.2937 109.262 17.2664 109.262 17.2383V15.3428C109.262 14.5831 108.815 13.9173 107.64 13.9173C106.878 13.9173 106.342 14.3038 106.129 14.8009C106.045 14.9976 106.192 15.1983 106.401 15.2456C106.647 15.3014 106.877 15.1092 107.041 14.9162C107.173 14.7602 107.376 14.6614 107.648 14.6614C108.149 14.6614 108.369 14.9199 108.369 15.241C108.369 15.3742 108.306 15.4838 108.087 15.5151L107.108 15.664C106.457 15.758 105.956 16.1339 105.956 16.8154ZM107.421 17.254C107.061 17.254 106.865 17.019 106.865 16.7605C106.865 16.4472 107.092 16.2906 107.374 16.2436L108.198 16.1203C108.288 16.1068 108.369 16.1763 108.369 16.2671C108.369 17.0112 107.93 17.254 107.421 17.254Z" fill="#999999"/>
<circle cx="11.8981" cy="11" r="11" fill="#999999"/>
<path d="M7.82467 7.13592L7.82467 7.13592C7.80879 7.06123 7.7833 6.95933 7.76102 6.8947C7.75546 6.87355 7.74916 6.85272 7.74215 6.83222C7.62271 6.48335 7.29568 6.23291 6.91097 6.23291C6.49951 6.23291 6.15403 6.5194 6.05795 6.90639C6.04059 6.97629 6.03137 7.04947 6.03137 7.12484C6.03137 7.27635 6.11473 7.52504 6.12005 7.544L6.28832 8.17557L6.51365 9.10488C6.67171 9.75676 6.82937 10.4087 6.98703 11.0607L6.98724 11.0616C7.27447 12.2494 7.5617 13.4372 7.85131 14.6244C7.98294 15.1639 8.18245 15.6504 8.82206 15.75C9.4753 15.8518 9.82595 15.4609 10.1246 14.9612L10.1751 14.8767C10.4482 14.4194 10.7218 13.9613 11.0248 13.5246C11.5905 12.7096 12.1078 12.9056 12.6664 13.7333C12.8537 14.0108 13.0264 14.2983 13.1991 14.5859L13.1991 14.5859C13.3341 14.8106 13.4691 15.0354 13.6111 15.2555C13.8731 15.6615 14.261 15.8168 14.7334 15.75C15.202 15.6837 15.4915 15.3889 15.602 14.9489L15.6914 14.5926C16.2879 12.2174 16.8823 9.65197 17.4438 7.26827C17.6052 6.58325 17.0335 6.10291 16.3576 6.28723C16.1588 6.34145 15.9663 6.42093 15.7744 6.50019L15.7733 6.50065C15.7278 6.51946 15.6822 6.53826 15.6367 6.5567C15.2794 6.70126 14.9241 6.85192 14.5689 7.00259L14.5687 7.00266L14.5686 7.00272C13.7703 7.34124 12.9722 7.67974 12.1517 7.94885C11.2781 8.23538 10.3509 8.41519 9.43515 8.49338C8.50736 8.57259 8.09869 8.17493 7.85649 7.27383C7.84457 7.22945 7.83465 7.18282 7.82467 7.13592Z" fill="white"/>
</svg>
