<svg width="20" height="20" viewBox="0 0 20 20" fill="none" xmlns="http://www.w3.org/2000/svg">
<path fill-rule="evenodd" clip-rule="evenodd" d="M20 10C20 15.5228 15.5228 20 10 20C4.47715 20 0 15.5228 0 10C0 4.47715 4.47715 0 10 0C15.5228 0 20 4.47715 20 10ZM15.9754 14.9272V10.8044C15.9754 8.5967 14.7964 7.56921 13.2237 7.56921C11.9536 7.56921 11.3871 8.26799 11.0695 8.75677V7.73802H8.67884C8.71093 8.41238 8.67884 14.927 8.67884 14.927H11.0693V10.9119C11.0693 10.6964 11.0855 10.483 11.1484 10.3294C11.3217 9.89942 11.7141 9.45537 12.3745 9.45537C13.24 9.45537 13.5851 10.1149 13.5851 11.0807V14.9272H15.9754ZM11.0695 8.75677V8.7803H11.0536C11.0559 8.77623 11.0589 8.77211 11.0619 8.76794C11.0645 8.76426 11.0672 8.76054 11.0695 8.75677ZM4.82559 5.51459C4.82559 4.8094 5.36054 4.27266 6.17822 4.27266C6.99607 4.27266 7.49859 4.8094 7.51445 5.51459C7.51445 6.20481 6.99607 6.75706 6.16235 6.75706H6.14684C5.34503 6.75706 4.82559 6.20481 4.82559 5.51459ZM7.35723 14.9272H4.96766V7.73802H7.35723V14.9272Z" fill="black"/>
</svg>
