<svg width="65" height="60" viewBox="0 0 65 60" fill="none" xmlns="http://www.w3.org/2000/svg">
<g opacity="0.5">
<path d="M13.2443 27.5584C12.9216 28.3474 12.0207 28.7252 11.2322 28.4022C10.4437 28.0793 10.0661 27.1779 10.3888 26.3889C11.0948 24.6629 12.0017 23.0288 13.0876 21.5202C14.896 19.0058 17.1783 16.8675 19.7986 15.2357C20.5219 14.7853 21.4733 15.0068 21.9235 15.7306C22.3737 16.4544 22.1523 17.4063 21.4289 17.8568C19.1512 19.2753 17.1656 21.1356 15.5916 23.324C14.6469 24.6364 13.8583 26.0576 13.2443 27.5584ZM35.3411 55.8507C36.1825 55.7164 36.9733 56.2901 37.1075 57.1319C37.2417 57.9738 36.6684 58.7651 35.827 58.8994C34.6217 59.0918 33.3929 59.1888 32.1489 59.1888C31.244 59.1888 30.3457 59.1372 29.4567 59.0349C26.3748 58.6808 23.4233 57.7196 20.7424 56.2185C19.9989 55.8022 19.7335 54.8616 20.1496 54.1176C20.5657 53.3737 21.5057 53.1081 22.2492 53.5244C24.5758 54.8272 27.1351 55.6606 29.809 55.9679C30.5812 56.0567 31.3618 56.1015 32.1489 56.1015C33.2305 56.1015 34.2968 56.0174 35.3411 55.8507ZM48.2561 22.7216C47.7336 22.0481 47.8557 21.0784 48.5288 20.5557C49.2018 20.0329 50.171 20.1551 50.6934 20.8286C51.8072 22.2643 52.7546 23.8247 53.5142 25.4788C54.799 28.273 55.5337 31.3059 55.6639 34.4416C55.6993 35.2934 55.0378 36.0126 54.1866 36.0479C53.3353 36.0833 52.6165 35.4215 52.5811 34.5697C52.4676 31.8375 51.8286 29.1992 50.7108 26.7685C50.0498 25.3289 49.2254 23.9711 48.2561 22.7216Z" fill="white"/>
<path d="M41.8041 13.2507C41.8041 7.63464 37.2985 3.08725 31.7473 3.08725C26.1962 3.08725 21.6906 7.63464 21.6906 13.2507C21.6906 18.8668 26.1962 23.4142 31.7473 23.4142C37.2985 23.4142 41.8041 18.8668 41.8041 13.2507ZM44.8896 13.2507C44.8896 20.5659 39.0086 26.5015 31.7473 26.5015C24.4861 26.5015 18.6051 20.5659 18.6051 13.2507C18.6051 5.93555 24.4861 0 31.7473 0C39.0086 0 44.8896 5.93555 44.8896 13.2507ZM61.6725 45.9379C61.6725 40.3218 57.167 35.7744 51.6158 35.7744C46.0646 35.7744 41.559 40.3218 41.559 45.9379C41.559 51.554 46.0646 56.1014 51.6158 56.1014C57.167 56.1014 61.6725 51.554 61.6725 45.9379ZM64.758 45.9379C64.758 53.2531 58.877 59.1886 51.6158 59.1886C44.3545 59.1886 38.4735 53.2531 38.4735 45.9379C38.4735 38.6227 44.3545 32.6872 51.6158 32.6872C58.877 32.6872 64.758 38.6227 64.758 45.9379ZM23.199 46.7493C23.199 41.1332 18.6934 36.5858 13.1422 36.5858C7.59106 36.5858 3.08547 41.1332 3.08547 46.7493C3.08547 52.3654 7.59106 56.9128 13.1422 56.9128C18.6934 56.9128 23.199 52.3654 23.199 46.7493ZM26.2845 46.7493C26.2845 54.0645 20.4035 60 13.1422 60C5.881 60 0 54.0645 0 46.7493C0 39.4341 5.881 33.4985 13.1422 33.4985C20.4035 33.4985 26.2845 39.4341 26.2845 46.7493Z" fill="white"/>
</g>
</svg>
