<svg width="119" height="119" viewBox="0 0 119 119" fill="none" xmlns="http://www.w3.org/2000/svg">
<path d="M98.4841 9.04834H18.7244V108.338H98.4841V9.04834Z" fill="#F2F2F2"/>
<path d="M100.17 110.025H17.0381V7.3623H100.17V110.025ZM20.4105 106.652H96.7978V10.7348H20.4105V106.652Z" fill="#312A28"/>
<path d="M85 46H32V95H85V46Z" fill="#FAA634"/>
<path d="M33 40V22H84V40H33Z" fill="#F7541F" stroke="#312A28" stroke-width="2"/>
<path d="M51 82.5C53 83.7 53.8333 87 54 88.5L61.5 88C61.6667 87.1667 62.4 85.1 64 83.5C65.6 81.9 68 79.8333 69 79L57.5 61.5L45.5 80C46.5 80.3333 49 81.3 51 82.5Z" fill="#F7541F"/>
<path d="M80.4398 60.3333H69.7481C69.0101 60.3333 68.4117 60.9303 68.4117 61.6667V73.6667H71.0846V63H79.1034V68.3333H73.7575V71H79.1034V77.6667H73.7575V80.3333H79.1034V87H73.7575V89.6667H79.1034V95H71.0846V84.3333H68.4117V95H63.0658V88.3333C63.0658 82.892 69.6893 81.696 69.9673 81.648C70.132 81.6205 70.2901 81.5625 70.4334 81.4768C71.0667 81.0985 71.2727 80.2797 70.8935 79.648L58.8653 59.648C58.7684 59.507 58.6463 59.3852 58.5049 59.2885C57.8724 58.856 57.0081 59.0168 56.5746 59.648L44.5464 79.648C44.461 79.79 44.4029 79.9467 44.3751 80.11C44.2514 80.836 44.7408 81.5245 45.4685 81.648C45.7505 81.696 52.3741 82.892 52.3741 88.3333V95H47.0282V84.3333H44.3553V95H43.0188V71H44.3553V73.6667H47.0282V69.6667C47.0285 69.486 46.9918 69.3072 46.9199 69.1413L42.9105 59.808C42.7754 59.4937 42.5243 59.2432 42.2092 59.1083C41.531 58.818 40.7451 59.1313 40.4541 59.808L36.4447 69.1413C36.3729 69.3072 36.3361 69.486 36.3365 69.6667V95H35H85.7857H81.7763V61.6667C81.7763 60.9303 81.1779 60.3333 80.4398 60.3333ZM55.047 91V89.6667H60.3929V91H55.047ZM60.3929 93.6667V95H55.047V93.6667H60.3929ZM54.9494 87C54.3093 82.76 50.6701 80.4667 47.7592 79.4867L56.3835 65.1475V76.3333H59.0564V65.1475L67.6806 79.4867C64.7671 80.46 61.1306 82.76 60.4904 87H54.9494ZM39.6968 68.3333L41.6823 63.712L43.6678 68.3333H39.6968ZM40.3459 71V95H39.0094V71H40.3459Z" fill="#312A28"/>
</svg>
