<svg width="119" height="119" viewBox="0 0 119 119" fill="none" xmlns="http://www.w3.org/2000/svg">
<path d="M90.4841 9.04834H10.7244V108.338H90.4841V9.04834Z" fill="#F2F2F2"/>
<path d="M92.1703 110.025H9.03809V7.3623H92.1703V110.025ZM12.4105 106.652H88.7978V10.7348H12.4105V106.652Z" fill="#312A28"/>
<path d="M49 57H24V69H49V57Z" fill="#F7541F"/>
<path d="M77 57H53V69H77V57Z" fill="#F7541F"/>
<path d="M77 33H24V54H77V33Z" fill="#FAA634"/>
<path d="M106.5 72.5L98.5 64L102.5 59.5L111.5 68L106.5 72.5Z" fill="#F7541F"/>
<path d="M95.532 64.436L106.403 75.3071L113.799 67.8307L102.968 57L95.532 64.436ZM106.363 70.7L100.099 64.436L102.968 61.5667L109.232 67.8307L106.363 70.7Z" fill="#312A28"/>
<path d="M69.9352 102.71L67.8385 101.032V93.9036L92.1604 70.4204L100.547 78.8073L77.064 102.71H69.9352Z" fill="white"/>
<path d="M103.533 78.1377L92.6623 67.2666L67 92.9289V103.8H77.8711L103.533 78.1377ZM70.2331 100.567V94.2626L92.6623 71.8333L98.9668 78.1377L76.5375 100.567H70.2331Z" fill="#312A28"/>
</svg>
