<svg width="119" height="119" viewBox="0 0 119 119" fill="none" xmlns="http://www.w3.org/2000/svg">
<path d="M90.4841 9.04834H10.7244V108.338H90.4841V9.04834Z" fill="#F2F2F2"/>
<path d="M92.1703 110.025H9.03809V7.3623H92.1703V110.025ZM12.4105 106.652H88.7978V10.7348H12.4105V106.652Z" fill="#312A28"/>
<path d="M76.93 41.4902H55.5671V53.9626H76.93V41.4902Z" fill="#F7541F"/>
<path d="M47.5607 42.334H24.3998V45.7064H47.5607V42.334Z" fill="#312A28"/>
<path d="M43.172 50.5845H24.6544V53.9569H43.172V50.5845Z" fill="#312A28"/>
<path d="M43.2862 58.9214H24.7675V62.2927H43.2862V58.9214Z" fill="#312A28"/>
<path d="M56.9367 67.5356H24.6544V70.9069H56.9367V67.5356Z" fill="#312A28"/>
<path d="M52.6313 75.7886H24.6544V79.1598H52.6313V75.7886Z" fill="#312A28"/>
<path d="M76.9312 22.686H24.4581V33.4008H76.9312V22.686Z" fill="#FAA634"/>
<path d="M55.9181 83.6807H24.6544V87.0519H55.9181V83.6807Z" fill="#312A28"/>
<path d="M63.6864 91.9307H24.6544V95.3031H63.6864V91.9307Z" fill="#312A28"/>
<path d="M49.4314 50.5845H45.5818V53.9569H49.4314V50.5845Z" fill="#312A28"/>
<path fill-rule="evenodd" clip-rule="evenodd" d="M92.738 85.5635L97.8395 90.8316L89.9331 98.4916L84.8054 93.1878C88.235 91.6277 91.0398 88.924 92.738 85.5635Z" fill="#F2F2F2"/>
<path d="M89.895 100.876L81.9315 92.6414L84.1068 91.6525C87.1759 90.2555 89.707 87.8231 91.2338 84.8029L92.3012 82.6895L100.222 90.8695L89.895 100.876ZM87.565 93.616L89.9724 96.1043L95.4523 90.7934L93.064 88.3253C91.6229 90.4542 89.7427 92.2618 87.565 93.616Z" fill="black"/>
<path fill-rule="evenodd" clip-rule="evenodd" d="M99.0877 89.6294L109.461 100.362L99.0639 110.407L88.6967 99.6754L99.0877 89.6294Z" fill="#F7541F"/>
<path d="M99.0235 112.791L86.3119 99.6335L99.1294 87.2456L111.847 100.402L99.0235 112.791ZM91.0802 99.7144L99.1056 108.022L107.076 100.32L99.0461 92.0127L91.0802 99.7144Z" fill="#312A28"/>
<path fill-rule="evenodd" clip-rule="evenodd" d="M78.6876 60.4507C87.9006 60.4507 95.369 67.9191 95.369 77.1333C95.369 86.3475 87.9018 93.8159 78.6876 93.8159C69.4734 93.8159 62.005 86.3475 62.005 77.1333C62.005 67.9191 69.4734 60.4507 78.6876 60.4507Z" fill="#F2F2F2"/>
<path d="M78.6876 95.5009C68.5595 95.5009 60.3199 87.2614 60.3199 77.1333C60.3199 67.0052 68.5595 58.7656 78.6876 58.7656C88.8157 58.7656 97.0564 67.0052 97.0564 77.1333C97.0564 87.2614 88.8157 95.5009 78.6876 95.5009ZM78.6876 62.1369C70.4183 62.1369 63.6924 68.864 63.6924 77.1333C63.6924 85.4026 70.4171 92.1285 78.6876 92.1285C86.9557 92.1285 93.684 85.4026 93.684 77.1333C93.684 68.864 86.9557 62.1369 78.6876 62.1369Z" fill="#312A28"/>
<path d="M59.7559 58.9214H47.4834V62.2927H59.7559V58.9214Z" fill="#312A28"/>
<path d="M90.9207 78.047H87.5483C87.5483 77.2902 87.4674 76.5536 87.3043 75.8574C87.2532 75.6361 87.1901 75.3993 87.1032 75.1077L90.3365 74.1462C90.4447 74.508 90.5245 74.8114 90.5923 75.0994C90.8089 76.0419 90.9207 77.0343 90.9207 78.047ZM86.2012 73.105C84.4293 70.13 81.1996 68.2759 77.7712 68.2724L77.776 64.8999C82.3825 64.9059 86.7224 67.3882 89.1 71.3795L86.2012 73.105Z" fill="black"/>
</svg>
