<svg width="122" height="122" viewBox="0 0 122 122" fill="none" xmlns="http://www.w3.org/2000/svg">
<path d="M94.3938 10.0806H18.3378V111.92H94.3938V10.0806Z" fill="#F3F0F0"/>
<path d="M96.0493 113.577H16.6798V8.42285H96.0506V113.577H96.0493ZM19.9945 110.261H92.7358V11.7388H19.9945V110.261Z" fill="black"/>
<path d="M85.1803 23.2056H28.2698V97.0448H85.1803V23.2056Z" fill="#FAA634"/>
<path d="M86.8383 98.7029H26.613V21.5488H86.8383V98.7029ZM29.9278 95.3881H83.5248V24.8636H29.9278V95.3881Z" fill="#312A28"/>
<path fill-rule="evenodd" clip-rule="evenodd" d="M56.5323 38.4785C66.601 38.4785 74.7603 46.6391 74.7603 56.7139C74.7603 66.7813 66.601 74.9419 56.5323 74.9419C46.4649 74.9419 38.297 66.7813 38.297 56.7139C38.297 46.6391 46.4637 38.4785 56.5323 38.4785Z" fill="#FF7C24"/>
<path d="M56.5324 76.6013C45.5633 76.6013 36.6403 67.6795 36.6403 56.7141C36.6403 45.7451 45.5633 36.8208 56.5324 36.8208C67.4977 36.8208 76.4196 45.7439 76.4196 56.7141C76.4196 67.6807 67.4977 76.6013 56.5324 76.6013ZM56.5324 40.1355C47.3921 40.1355 39.955 47.5727 39.955 56.7141C39.955 65.8519 47.3921 73.2854 56.5324 73.2854C65.6702 73.2854 73.1036 65.8519 73.1036 56.7141C73.1036 47.5727 65.6702 40.1355 56.5324 40.1355Z" fill="#F2F2F2"/>
<path fill-rule="evenodd" clip-rule="evenodd" d="M56.5323 46.8101C62.0003 46.8101 66.4301 51.2399 66.4301 56.714C66.4301 62.1808 62.0015 66.6119 56.5323 66.6119C51.0642 66.6119 46.6283 62.1808 46.6283 56.714C46.6283 51.2399 51.0642 46.8101 56.5323 46.8101Z" fill="#FF7C24"/>
<path d="M56.5323 68.2687C50.1578 68.2687 44.9703 63.0849 44.9703 56.714C44.9703 50.3383 50.1566 45.1509 56.5323 45.1509C62.9043 45.1509 68.0869 50.3383 68.0869 56.714C68.0869 63.0849 62.9043 68.2687 56.5323 68.2687ZM56.5323 48.4681C51.9853 48.4681 48.2863 52.1671 48.2863 56.7153C48.2863 61.2585 51.9853 64.9551 56.5323 64.9551C61.0768 64.9551 64.7734 61.2585 64.7734 56.7153C64.7734 52.1671 61.0768 48.4681 56.5323 48.4681Z" fill="#F2F2F2"/>
<path fill-rule="evenodd" clip-rule="evenodd" d="M80.9275 102.027C77.6823 97.6438 73.577 100.037 69.0056 96.3824C68.3956 95.8956 67.732 95.2966 67.028 94.6341C63.3436 91.1534 62.8446 91.7939 57.0899 89.1185C54.6548 87.9863 51.2693 86.2673 55.277 84.0201C58.3746 82.2828 61.5258 81.3507 66.8523 84.818C69.4156 86.4833 65.6543 80.7041 65.3798 80.2344L53.874 60.3216C51.3522 55.9503 57.3705 51.3924 60.4974 56.6726L69.4631 71.8103C66.4534 66.729 72.9475 63.8486 75.5827 68.4822C73.3122 64.8222 79.1963 59.2712 82.9698 65.6835C80.9214 62.4041 87.4594 58.9064 90.1629 63.7949L93.33 69.5094C99.6447 80.9164 97.3206 81.7131 98.3003 84.0774C99.4215 86.7993 102.166 90.1262 103.663 92.8663L83.0405 105.059C82.4769 104.185 81.7778 103.183 80.9275 102.027Z" fill="#F2F2F2"/>
<path d="M83.0405 106.718C82.4952 106.718 81.962 106.448 81.646 105.958C81.097 105.105 80.4248 104.141 79.5928 103.009C78.23 101.168 76.7392 100.874 74.6774 100.466C72.7705 100.087 70.3964 99.6177 67.9698 97.6779C67.394 97.218 66.734 96.6348 65.8922 95.8406C63.5266 93.6068 62.7446 93.292 60.4241 92.3563C59.4042 91.9463 58.1366 91.4339 56.3908 90.6226C54.5852 89.7833 51.8573 88.5133 51.7682 86.2001C51.717 84.8276 52.6235 83.6076 54.4644 82.5743C56.0212 81.702 57.9317 80.8102 60.2985 80.8102C61.5783 80.8102 62.8959 81.0737 64.2769 81.6056C64.2305 81.5312 64.1842 81.4568 64.1366 81.3787C64.0439 81.2311 63.9792 81.1262 63.9499 81.0749L52.4392 61.1511C51.373 59.3052 51.3449 57.1532 52.3624 55.3903C53.342 53.6932 55.1086 52.6392 56.9728 52.6392C58.1171 52.6392 60.2802 53.054 61.9235 55.827L68.0992 66.2531C69.0142 65.1515 70.4257 64.4927 71.947 64.4927C72.5778 64.4927 73.1902 64.6013 73.7673 64.8074C73.8844 64.4963 74.0296 64.1901 74.2053 63.8924C75.2227 62.1637 77.0198 61.0889 78.8925 61.0889C79.5794 61.0889 80.6249 61.2414 81.7497 61.9551C82.7526 60.5826 84.513 59.7176 86.3686 59.7176C88.55 59.7176 90.4605 60.912 91.6134 62.9933L94.7806 68.7078C99.5178 77.2649 99.5971 80.2014 99.6496 82.1436C99.6679 82.7988 99.6789 83.0794 99.8326 83.4454C100.428 84.8935 101.61 86.643 102.752 88.3376C103.594 89.5856 104.464 90.8764 105.118 92.0744C105.547 92.8589 105.276 93.8398 104.508 94.2948L83.8847 106.486C83.6188 106.642 83.3284 106.718 83.0405 106.718ZM55.1794 86.1025C55.4478 86.3819 56.1395 86.848 57.7877 87.6153C59.4567 88.3913 60.6803 88.8841 61.6637 89.2806C64.1159 90.2701 65.3468 90.7654 68.1663 93.4274C68.9397 94.1558 69.5351 94.6828 70.0402 95.0854C71.8348 96.5213 73.5282 96.8556 75.3216 97.2119C77.5761 97.6572 80.132 98.1635 82.2597 101.039C82.7343 101.684 83.1613 102.28 83.5456 102.835L101.389 92.2855C100.964 91.6157 100.491 90.9142 100.002 90.1895C98.7663 88.3583 97.489 86.4637 96.7667 84.7093C96.3751 83.765 96.3544 82.9854 96.3348 82.2315C96.2909 80.6113 96.225 78.1616 91.8806 70.3121L88.7135 64.5976C87.9961 63.302 87.0421 63.0323 86.3686 63.0323C85.4231 63.0323 84.6387 63.5325 84.3496 64.0279C84.2019 64.2816 84.1983 64.4915 84.341 64.7477L84.3984 64.8428C84.8571 65.6248 84.6033 66.6301 83.8274 67.101C83.0527 67.572 82.0438 67.3304 81.5631 66.5618C81.5338 66.5142 81.5057 66.4679 81.4789 66.4203C80.6896 65.121 79.7709 64.4036 78.8925 64.4036C78.1995 64.4036 77.481 64.8636 77.0625 65.5748C76.8783 65.8884 76.4989 66.7009 76.9356 67.5122C76.9649 67.5622 76.9954 67.6134 77.0247 67.6647C77.4712 68.4504 77.2065 69.4483 76.4293 69.9083C75.6534 70.3694 74.6506 70.1254 74.1748 69.358C74.1382 69.297 74.1015 69.236 74.0674 69.1763C73.3366 67.9868 72.4265 67.8099 71.9482 67.8099C71.3321 67.8099 70.7868 68.0941 70.5245 68.5541C70.189 69.1433 70.3196 70.001 70.8905 70.9672C71.3578 71.7553 71.0955 72.7716 70.3086 73.2376C69.5205 73.7037 68.5042 73.4438 68.0382 72.6557C68.0382 72.6545 68.0382 72.6533 68.0369 72.652L59.0736 57.5179C58.6515 56.8055 57.9451 55.9551 56.9752 55.9551C56.3018 55.9551 55.6198 56.3858 55.2355 57.0495C54.9866 57.4813 54.6645 58.3732 55.3123 59.4943L66.8169 79.4072C66.834 79.4352 66.884 79.5158 66.9524 79.6268C69.2996 83.3929 69.7742 84.7276 69.1593 85.8341C68.8324 86.4234 68.226 86.776 67.5392 86.776C67.0463 86.776 66.5559 86.6003 65.952 86.2075C63.7974 84.8057 61.9504 84.1249 60.3021 84.1249C58.7027 84.1249 57.3314 84.7691 56.0895 85.4669C55.582 85.7487 55.316 85.9683 55.1794 86.1025Z" fill="black"/>
<path d="M65.7617 14.7949H47.8606V18.1109H65.7617V14.7949Z" fill="#F7541F"/>
<path fill-rule="evenodd" clip-rule="evenodd" d="M55.9809 101.458C57.5937 101.458 58.9089 102.765 58.9089 104.379C58.9089 106 57.5937 107.307 55.9809 107.307C54.3619 107.307 53.0529 106 53.0529 104.379C53.0529 102.765 54.3619 101.458 55.9809 101.458Z" fill="#F2F2F2"/>
</svg>
