<svg width="108" height="15" viewBox="0 0 108 15" fill="none" xmlns="http://www.w3.org/2000/svg">
<path d="M21.1416 14.5024C20.9818 14.531 20.7441 14.5719 20.4314 14.6223C20.1186 14.6728 19.8017 14.6987 19.4807 14.6987C19.1598 14.6987 18.8729 14.6769 18.6175 14.6333C18.3621 14.5896 18.1477 14.5024 17.9729 14.3715C17.798 14.2406 17.6628 14.062 17.5686 13.837C17.4743 13.6121 17.4265 13.3176 17.4265 12.9536V0.301309C17.5863 0.272677 17.824 0.231776 18.1368 0.18133C18.4495 0.130885 18.7664 0.10498 19.0874 0.10498C19.4084 0.10498 19.6952 0.126795 19.9506 0.170423C20.206 0.214052 20.4204 0.301309 20.5953 0.432194C20.7701 0.563079 20.9053 0.741683 20.9996 0.966642C21.0938 1.1916 21.1416 1.48609 21.1416 1.85012V14.5024Z" fill="#999999"/>
<path fill-rule="evenodd" clip-rule="evenodd" d="M26.0682 14.5132C26.8044 14.7532 27.602 14.8732 28.4611 14.8732C28.9706 14.8732 29.5169 14.8295 30.1001 14.7423C30.6834 14.655 31.2078 14.4873 31.6736 14.2406C32.2855 13.9202 32.5914 13.4334 32.5914 12.779C32.5914 12.4886 32.5109 12.2118 32.3511 11.9501C32.1913 11.6883 31.9946 11.4851 31.761 11.3393C31.4264 11.5424 30.992 11.721 30.4607 11.8737C29.9294 12.0264 29.364 12.1028 28.7671 12.1028C28.1265 12.1028 27.5583 11.9828 27.0625 11.7428C26.5667 11.5029 26.2389 11.1429 26.0791 10.663L31.4769 9.8559C31.9727 9.78364 32.3579 9.61594 32.6352 9.35417C32.9124 9.0924 33.0504 8.71474 33.0504 8.21983C33.0504 7.55041 32.9233 6.93279 32.6679 6.36562C32.4125 5.79845 32.056 5.31172 31.5971 4.90407C31.1382 4.49642 30.5919 4.17738 29.9581 3.94424C29.3244 3.7111 28.6209 3.59521 27.8492 3.59521C27.165 3.59521 26.4943 3.7002 25.8387 3.91152C25.1831 4.12285 24.5999 4.45006 24.0904 4.89316C23.581 5.33626 23.1685 5.90343 22.8557 6.59467C22.5429 7.28591 22.3859 8.11076 22.3859 9.07059C22.3859 10.0454 22.5429 10.8962 22.8557 11.6229C23.1685 12.3495 23.5987 12.9535 24.1451 13.4334C24.6914 13.9133 25.332 14.2733 26.0682 14.5132ZM26.9423 6.47472C27.1977 6.35883 27.4996 6.30021 27.8493 6.30021C28.3888 6.30021 28.7958 6.44609 29.073 6.73649C29.3503 7.02689 29.5101 7.31866 29.5538 7.60906L25.8169 8.21986C25.8319 7.98672 25.8783 7.75767 25.9589 7.53271C26.0395 7.30775 26.1597 7.10324 26.3195 6.92191C26.4793 6.74058 26.6869 6.59061 26.9423 6.47472Z" fill="#999999"/>
<path fill-rule="evenodd" clip-rule="evenodd" d="M41.1541 3.83517C40.5053 3.67565 39.7882 3.59521 39.0015 3.59521C38.492 3.59521 37.9484 3.63203 37.3734 3.70429C36.7984 3.77655 36.2985 3.8938 35.8765 4.05331C35.4981 4.21283 35.2168 4.40643 35.0351 4.63139C34.8534 4.85635 34.7619 5.15902 34.7619 5.53668C34.7619 5.82708 34.8275 6.10794 34.9586 6.37653C35.0897 6.64512 35.2495 6.84554 35.4394 6.97642C35.8614 6.80191 36.3354 6.65602 36.8599 6.54014C37.3843 6.42425 37.9239 6.36562 38.477 6.36562C39.1763 6.36562 39.7117 6.45697 40.0833 6.6383C40.4548 6.81963 40.6405 7.1223 40.6405 7.54359V7.69629L37.7777 8.00169C36.5252 8.13258 35.5992 8.46661 35.0023 9.00514C34.4054 9.54368 34.1063 10.314 34.1063 11.3175C34.1063 11.9133 34.2265 12.4368 34.4669 12.8881C34.7073 13.3394 35.0501 13.7102 35.494 14.0006C35.9379 14.291 36.4706 14.5091 37.0893 14.655C37.7081 14.8009 38.4046 14.8732 39.1763 14.8732C40.8959 14.8732 42.229 14.5896 43.1755 14.0224C43.4664 13.8479 43.7178 13.6407 43.9295 13.4007C44.1412 13.1608 44.2463 12.8513 44.2463 12.4736V7.58722C44.2463 6.90416 44.1221 6.31109 43.8748 5.80936C43.6276 5.30763 43.2739 4.89316 42.8149 4.56595C42.356 4.23873 41.8029 3.99469 41.1541 3.83517ZM39.9958 12.0918C39.6967 12.1423 39.4235 12.1682 39.1763 12.1682C38.6368 12.1682 38.2544 12.0768 38.029 11.8955C37.8036 11.7142 37.6903 11.4769 37.6903 11.1865C37.6903 10.8961 37.8214 10.678 38.0836 10.5321C38.3459 10.3862 38.6805 10.299 39.0889 10.2703L40.6623 10.1395V11.8846C40.5162 11.9719 40.2949 12.0414 39.9958 12.0918Z" fill="#999999"/>
<path d="M52.1917 7.80536C52.1917 7.35408 52.0647 7.02414 51.8093 6.81281C51.5538 6.60149 51.2083 6.49651 50.7712 6.49651C50.4803 6.49651 50.1921 6.53332 49.908 6.60558C49.6239 6.67784 49.3794 6.78691 49.1759 6.93279V14.5023C49.0298 14.546 48.8003 14.5896 48.4875 14.6332C48.1747 14.6768 47.8497 14.6987 47.515 14.6987C47.1941 14.6987 46.9072 14.6768 46.6518 14.6332C46.3964 14.5896 46.182 14.5023 46.0072 14.3714C45.8323 14.2406 45.6971 14.062 45.6029 13.837C45.5086 13.612 45.4608 13.3175 45.4608 12.9535V6.40925C45.4608 6.01659 45.5441 5.6962 45.7121 5.44942C45.8801 5.20265 46.1096 4.97633 46.4005 4.77318C46.8963 4.42416 47.5191 4.14057 48.269 3.92243C49.0188 3.70429 49.8534 3.59521 50.7712 3.59521C52.4171 3.59521 53.6846 3.95515 54.5737 4.67502C55.4629 5.39489 55.9068 6.39425 55.9068 7.67448V14.5023C55.7606 14.546 55.5312 14.5896 55.2184 14.6332C54.9056 14.6768 54.5806 14.6987 54.2459 14.6987C53.9249 14.6987 53.6381 14.6768 53.3827 14.6332C53.1273 14.5896 52.9129 14.5023 52.738 14.3714C52.5632 14.2406 52.428 14.062 52.3337 13.837C52.2395 13.612 52.1917 13.3175 52.1917 12.9535V7.80536Z" fill="#999999"/>
<path d="M66.3146 11.3609C66.3146 12.4666 65.8994 13.331 65.0689 13.9568C64.2385 14.5826 63.0147 14.8948 61.3975 14.8948C60.7856 14.8948 60.2175 14.8512 59.693 14.7639C59.1685 14.6767 58.7205 14.5417 58.349 14.3604C57.9775 14.1791 57.6865 13.95 57.4748 13.6732C57.2631 13.3965 57.158 13.0693 57.158 12.6916C57.158 12.3426 57.2304 12.0481 57.3765 11.8081C57.5226 11.5682 57.6975 11.3677 57.901 11.2082C58.323 11.4414 58.8079 11.6486 59.3542 11.8299C59.9006 12.0113 60.5302 12.1026 61.2446 12.1026C61.6967 12.1026 62.0422 12.0372 62.2826 11.9063C62.523 11.7754 62.6432 11.6009 62.6432 11.3827C62.6432 11.1796 62.5558 11.0187 62.381 10.9028C62.2061 10.7869 61.9152 10.6915 61.5068 10.6192L60.8512 10.4884C59.5837 10.2416 58.6399 9.85165 58.0212 9.32129C57.4025 8.79094 57.0924 8.03016 57.0924 7.04171C57.0924 6.50317 57.2085 6.01644 57.4421 5.58015C57.6756 5.14387 58.0034 4.77984 58.4255 4.48944C58.8475 4.19904 59.3542 3.97272 59.9443 3.8132C60.5343 3.65368 61.1858 3.57324 61.9002 3.57324C62.4397 3.57324 62.945 3.61278 63.419 3.69322C63.8929 3.77366 64.3041 3.89364 64.6537 4.05316C65.0034 4.21267 65.2806 4.41991 65.4841 4.67486C65.6877 4.92981 65.7901 5.23112 65.7901 5.58015C65.7901 5.91418 65.7286 6.20186 65.6043 6.44181C65.4801 6.68177 65.3243 6.88219 65.1345 7.04171C65.0184 6.96945 64.8436 6.8931 64.61 6.81266C64.3765 6.73222 64.1224 6.65996 63.8451 6.59451C63.5679 6.52907 63.2879 6.47454 63.0038 6.43091C62.7197 6.38728 62.4615 6.36546 62.228 6.36546C61.7472 6.36546 61.3757 6.42 61.1135 6.52907C60.8512 6.63814 60.7201 6.80857 60.7201 7.04171C60.7201 7.20122 60.7925 7.33211 60.9386 7.43436C61.0848 7.53662 61.3607 7.63069 61.7691 7.71795L62.4465 7.87065C63.8451 8.19104 64.8395 8.63005 65.4295 9.19041C66.0196 9.75076 66.3146 10.4734 66.3146 11.3609Z" fill="#999999"/>
<path d="M71.1868 10.8812C71.1868 11.2589 71.307 11.5289 71.5474 11.6884C71.7877 11.8479 72.1265 11.9283 72.5635 11.9283C72.7821 11.9283 73.0074 11.9106 73.241 11.8738C73.4746 11.837 73.6781 11.7906 73.8529 11.732C73.984 11.8915 74.0974 12.0701 74.1916 12.2664C74.2859 12.4628 74.3337 12.6986 74.3337 12.9754C74.3337 13.5276 74.1261 13.9789 73.7108 14.3279C73.2956 14.6769 72.5635 14.8514 71.5146 14.8514C70.232 14.8514 69.2459 14.561 68.5534 13.9789C67.8609 13.3967 67.5154 12.4519 67.5154 11.143V1.80652C67.6752 1.76289 67.9046 1.71517 68.2038 1.66473C68.5029 1.61428 68.8198 1.58838 69.1544 1.58838C69.795 1.58838 70.2949 1.70154 70.6514 1.9265C71.0078 2.15146 71.1868 2.62865 71.1868 3.35533V4.75144H74.0496C74.137 4.91096 74.2203 5.11138 74.3009 5.35134C74.3815 5.59129 74.4211 5.85715 74.4211 6.14755C74.4211 6.6561 74.3077 7.02421 74.0824 7.24917C73.857 7.47413 73.5538 7.58729 73.1754 7.58729H71.1868V10.8812Z" fill="#999999"/>
<path fill-rule="evenodd" clip-rule="evenodd" d="M82.7362 3.83517C82.0875 3.67565 81.3704 3.59521 80.5837 3.59521C80.0742 3.59521 79.5306 3.63203 78.9556 3.70429C78.3806 3.77655 77.8807 3.8938 77.4586 4.05331C77.0803 4.21283 76.7989 4.40643 76.6173 4.63139C76.4356 4.85635 76.3441 5.15902 76.3441 5.53668C76.3441 5.82708 76.4096 6.10794 76.5408 6.37653C76.6719 6.64512 76.8317 6.84554 77.0215 6.97642C77.4436 6.80191 77.9175 6.65602 78.442 6.54014C78.9665 6.42425 79.506 6.36562 80.0592 6.36562C80.7585 6.36562 81.2939 6.45697 81.6654 6.6383C82.0369 6.81963 82.2227 7.1223 82.2227 7.54359V7.69629L79.3599 8.00169C78.1074 8.13258 77.1813 8.46661 76.5845 9.00514C75.9876 9.54368 75.6885 10.314 75.6885 11.3175C75.6885 11.9133 75.8087 12.4368 76.0491 12.8881C76.2894 13.3394 76.6323 13.7102 77.0762 14.0006C77.5201 14.291 78.0528 14.5091 78.6715 14.655C79.2902 14.8009 79.9868 14.8732 80.7585 14.8732C82.4781 14.8732 83.8111 14.5896 84.7577 14.0224C85.0486 13.8479 85.2999 13.6407 85.5116 13.4007C85.7233 13.1608 85.8285 12.8513 85.8285 12.4736V7.58722C85.8285 6.90416 85.7042 6.31109 85.457 5.80936C85.2098 5.30763 84.856 4.89316 84.3971 4.56595C83.9382 4.23873 83.385 3.99469 82.7362 3.83517ZM81.578 12.0918C81.2788 12.1423 81.0057 12.1682 80.7585 12.1682C80.219 12.1682 79.8365 12.0768 79.6112 11.8955C79.3858 11.7142 79.2724 11.4769 79.2724 11.1865C79.2724 10.8961 79.4035 10.678 79.6658 10.5321C79.928 10.3862 80.2627 10.299 80.671 10.2703L82.2445 10.1395V11.8846C82.0984 11.9719 81.8771 12.0414 81.578 12.0918Z" fill="#999999"/>
<path d="M93.4542 6.51832C93.0895 6.51832 92.744 6.57695 92.4162 6.69284C92.0884 6.80872 91.8043 6.98051 91.5639 7.20547C91.3235 7.43043 91.1309 7.71129 90.9848 8.04532C90.8386 8.37935 90.7662 8.772 90.7662 9.22329C90.7662 10.1245 91.0244 10.8007 91.542 11.252C92.0597 11.7033 92.6894 11.9283 93.4324 11.9283C93.8694 11.9283 94.2478 11.8778 94.5688 11.7756C94.8897 11.6733 95.1738 11.5642 95.421 11.4483C95.712 11.6515 95.9305 11.8737 96.0766 12.1137C96.2228 12.3536 96.2952 12.6413 96.2952 12.9753C96.2952 13.5711 96.0111 14.0333 95.4429 14.3605C94.8747 14.6878 94.088 14.8514 93.0827 14.8514C92.1649 14.8514 91.3344 14.7164 90.5914 14.4478C89.8484 14.1792 89.2106 13.8002 88.6792 13.3135C88.1479 12.8267 87.7354 12.2405 87.4445 11.5574C87.1536 10.8744 87.0074 10.1177 87.0074 9.28873C87.0074 8.3289 87.1645 7.48906 87.4773 6.76919C87.7901 6.04932 88.2162 5.45624 88.7557 4.99133C89.2952 4.52641 89.9181 4.17738 90.6242 3.94424C91.3303 3.7111 92.0775 3.59521 92.8642 3.59521C93.9132 3.59521 94.7217 3.78473 95.2899 4.16238C95.8581 4.54004 96.1422 5.02814 96.1422 5.62394C96.1422 5.90071 96.0766 6.15839 95.9455 6.39834C95.8144 6.6383 95.6614 6.84554 95.4866 7.02005C95.2394 6.90416 94.9403 6.791 94.5906 6.68193C94.241 6.57286 93.8626 6.51832 93.4542 6.51832Z" fill="#999999"/>
<path d="M107.898 12.6045C107.826 13.2876 107.625 13.8111 107.297 14.1752C106.969 14.5392 106.493 14.7205 105.866 14.7205C105.4 14.7205 104.985 14.6074 104.62 14.3824C104.255 14.1574 103.862 13.7757 103.44 13.2372L101.276 10.5322V14.5024C101.117 14.531 100.879 14.5719 100.566 14.6224C100.253 14.6728 99.9365 14.6987 99.6155 14.6987C99.2945 14.6987 99.0077 14.6769 98.7523 14.6333C98.4969 14.5896 98.2824 14.5024 98.1076 14.3715C97.9328 14.2406 97.7976 14.062 97.7033 13.837C97.6091 13.6121 97.5613 13.3176 97.5613 12.9536V0.323123C97.7211 0.279494 97.9587 0.231776 98.2715 0.18133C98.5843 0.130885 98.9012 0.10498 99.2221 0.10498C99.5431 0.10498 99.8299 0.126795 100.085 0.170423C100.341 0.214052 100.555 0.301309 100.73 0.432194C100.905 0.563079 101.04 0.741684 101.134 0.966643C101.229 1.1916 101.276 1.48609 101.276 1.85012V7.60908L105.035 3.76977C105.793 3.76977 106.401 3.93747 106.86 4.2715C107.319 4.60553 107.548 5.02818 107.548 5.53673C107.548 5.75487 107.511 5.95529 107.439 6.13662C107.367 6.31795 107.253 6.50337 107.1 6.69288C106.947 6.88239 106.751 7.08145 106.51 7.29277C106.27 7.5041 105.99 7.74678 105.669 8.02355L104.401 9.11426L107.898 12.6045Z" fill="#999999"/>
<path d="M14.6153 -0.000190496C14.6471 0.169314 14.6891 0.421398 14.7426 0.753163C14.7975 1.08493 14.8235 1.42104 14.8235 1.7615C14.8235 2.10196 14.8004 2.4062 14.7541 2.67711C14.7079 2.94803 14.6153 3.17549 14.4765 3.36093C14.3376 3.54637 14.1496 3.68979 13.9096 3.78976C13.671 3.88972 13.3586 3.94043 12.9725 3.94043L0.782831 3.94043C0.752462 3.77093 0.709077 3.51884 0.65557 3.18708C0.602062 2.85531 0.574585 2.5192 0.574585 2.17874C0.574585 1.83828 0.597723 1.53404 0.644 1.26313C0.690277 0.992208 0.782831 0.764754 0.921662 0.579313C1.06049 0.393872 1.24994 0.250445 1.48855 0.15048C1.72717 0.0505161 2.03954 -0.000190496 2.42566 -0.000190496L14.6153 -0.000190496Z" fill="#999999"/>
<path d="M3.38647 3.07227C3.09403 3.07227 2.84708 2.97389 2.64706 2.77713C2.44705 2.58037 2.34668 2.31996 2.34668 1.99589C2.34668 1.67181 2.44705 1.4114 2.64706 1.21464C2.84708 1.01788 3.09403 0.919506 3.38647 0.919506C3.67891 0.919506 3.92586 1.01788 4.12587 1.21464C4.32588 1.4114 4.42625 1.67181 4.42625 1.99589C4.42625 2.31996 4.32588 2.58037 4.12587 2.77713C3.92586 2.97389 3.67891 3.07227 3.38647 3.07227Z" fill="white"/>
<path d="M14.6153 5.55547C14.6471 5.72498 14.6891 5.97706 14.7426 6.30883C14.7975 6.64059 14.8235 6.9767 14.8235 7.31716C14.8235 7.65762 14.8004 7.96186 14.7541 8.23278C14.7079 8.5037 14.6153 8.73115 14.4765 8.91659C14.3376 9.10203 14.1496 9.24546 13.9096 9.34542C13.671 9.44539 13.3586 9.49609 12.9725 9.49609H0.782831C0.752462 9.32659 0.709077 9.07451 0.65557 8.74274C0.602062 8.41097 0.574585 8.07486 0.574585 7.7344C0.574585 7.39395 0.597723 7.08971 0.644 6.81879C0.690277 6.54787 0.782831 6.32042 0.921662 6.13498C1.06049 5.94954 1.24994 5.80611 1.48855 5.70614C1.72717 5.60618 2.03954 5.55547 2.42566 5.55547L14.6153 5.55547Z" fill="#999999"/>
<path d="M3.38647 8.62793C3.09403 8.62793 2.84708 8.52955 2.64706 8.33279C2.44705 8.13604 2.34668 7.87562 2.34668 7.55155C2.34668 7.22748 2.44705 6.96706 2.64706 6.77031C2.84708 6.57355 3.09403 6.47517 3.38647 6.47517C3.67891 6.47517 3.92586 6.57355 4.12587 6.77031C4.32588 6.96706 4.42625 7.22748 4.42625 7.55155C4.42625 7.87562 4.32588 8.13604 4.12587 8.33279C3.92586 8.52955 3.67891 8.62793 3.38647 8.62793Z" fill="white"/>
<path d="M14.6153 11.0594C14.6471 11.2289 14.6891 11.481 14.7426 11.8127C14.7975 12.1445 14.8235 12.4806 14.8235 12.8211C14.8235 13.1615 14.8004 13.4658 14.7541 13.7367C14.7079 14.0076 14.6153 14.2351 14.4765 14.4205C14.3376 14.6059 14.1496 14.7494 13.9096 14.8493C13.671 14.9493 13.3586 15 12.9725 15H0.782831C0.752462 14.8305 0.709077 14.5784 0.65557 14.2466C0.602062 13.9149 0.574585 13.5788 0.574585 13.2383C0.574585 12.8979 0.597723 12.5936 0.644 12.3227C0.690277 12.0518 0.782831 11.8243 0.921662 11.6389C1.06049 11.4534 1.24994 11.31 1.48855 11.2101C1.72717 11.1101 2.03954 11.0594 2.42566 11.0594H14.6153Z" fill="#999999"/>
<path d="M3.38647 14.1318C3.09403 14.1318 2.84708 14.0335 2.64706 13.8367C2.44705 13.6399 2.34668 13.3795 2.34668 13.0555C2.34668 12.7314 2.44705 12.471 2.64706 12.2742C2.84708 12.0775 3.09403 11.9791 3.38647 11.9791C3.67891 11.9791 3.92586 12.0775 4.12587 12.2742C4.32588 12.471 4.42625 12.7314 4.42625 13.0555C4.42625 13.3795 4.32588 13.6399 4.12587 13.8367C3.92586 14.0335 3.67891 14.1318 3.38647 14.1318Z" fill="white"/>
</svg>
