<svg width="113" height="15" viewBox="0 0 113 15" fill="none" xmlns="http://www.w3.org/2000/svg">
<g opacity="0.4">
<path d="M1.54846 12.4382C1.54846 11.5735 2.2696 10.8834 3.13347 10.9214L8.66387 11.165C9.18284 11.1878 9.60531 11.5902 9.65337 12.1075C9.70515 12.6648 9.30643 13.1631 8.75131 13.2348L3.26117 13.9439C2.353 14.0612 1.54846 13.3539 1.54846 12.4382Z" fill="black"/>
<path d="M0 7.4979C0 6.61595 0.720585 5.90397 1.60247 5.91458L12.5365 6.04604C13.1173 6.05303 13.5915 6.51253 13.6168 7.09285C13.6425 7.68236 13.1962 8.18611 12.6079 8.23171L1.70578 9.0766C0.785813 9.14789 0 8.42062 0 7.4979Z" fill="black"/>
<path d="M1.54846 2.60464C1.54846 1.73821 2.27538 1.04916 3.14057 1.09547L8.39292 1.37662C8.80633 1.39875 9.16645 1.66588 9.30756 2.05509C9.53259 2.67578 9.12471 3.34516 8.46992 3.42973L3.25339 4.10351C2.34935 4.22028 1.54846 3.51618 1.54846 2.60464Z" fill="black"/>
<path d="M18.9961 0V14.6439H21.531V0H18.9961Z" fill="black"/>
<path d="M34.0074 10.3911C34.4054 6.13827 32.2476 4.0014 28.7909 4.0014C25.4389 4.0014 23.3021 6.26397 23.3021 9.40643C23.3021 12.7165 25.418 14.9162 28.9795 14.9162C30.5507 14.9162 32.3314 14.3715 33.4208 13.2402L31.7867 11.6271C31.2001 12.2346 29.9641 12.5908 29.0214 12.5908C27.2197 12.5908 26.1093 11.669 25.9417 10.3911H34.0074ZM25.9836 8.27514C26.3607 6.93436 27.492 6.26397 28.8747 6.26397C30.3412 6.26397 31.3887 6.93436 31.5563 8.27514H25.9836Z" fill="black"/>
<path d="M46.1374 14.6439V9.21788C46.1374 5.97067 44.1891 4.14805 41.7589 4.14805C40.4601 4.14805 39.4126 4.67179 38.3651 5.69832L38.1975 4.29469H35.914V14.6439H38.4489V9.36453C38.4489 7.7933 39.5173 6.47346 41.0886 6.47346C42.7226 6.47346 43.5816 7.6676 43.5816 9.23883V14.6439H46.1374Z" fill="black"/>
<path d="M53.3409 6.45251C54.954 6.45251 56.3367 7.6676 56.3367 9.46927C56.3367 11.3338 54.954 12.507 53.3409 12.507C51.7068 12.507 50.4079 11.271 50.4079 9.46927C50.4079 7.60475 51.7068 6.45251 53.3409 6.45251ZM56.5043 0V5.71927C55.8967 4.65084 54.1998 4.06425 53.1104 4.06425C50.0937 4.06425 47.852 5.90782 47.852 9.46927C47.852 12.8631 50.1356 14.8743 53.1733 14.8743C54.4302 14.8743 55.7082 14.4553 56.5043 13.2193L56.6719 14.6439H59.0601V0H56.5043Z" fill="black"/>
<path d="M69.4546 5.38408C68.2605 4.33659 67.0454 4.02235 65.4323 4.02235C63.5468 4.02235 61.0747 4.86034 61.0747 7.2486C61.0747 9.59497 63.4002 10.3073 65.3485 10.4539C66.815 10.5377 67.4016 10.831 67.4016 11.5433C67.4016 12.2975 66.5007 12.8003 65.537 12.7793C64.3848 12.7584 62.7088 12.1508 61.9756 11.3338L60.7186 13.1564C62.227 14.7277 63.8611 15 65.4951 15C68.449 15 69.9365 13.4288 69.9365 11.6061C69.9365 8.86173 67.4644 8.42179 65.5161 8.29609C64.1963 8.21229 63.5887 7.8352 63.5887 7.16481C63.5887 6.51536 64.2591 6.13827 65.4742 6.13827C66.4588 6.13827 67.2968 6.36872 68.0301 7.06006L69.4546 5.38408Z" fill="black"/>
<path d="M72.6225 1.67598V4.33659H70.6951V6.53631H72.6225V10.9986C72.6225 13.5754 74.0889 14.8534 76.3306 14.7696C77.1057 14.7486 77.7132 14.6229 78.4465 14.3296L77.7342 12.1508C77.3571 12.3394 76.8962 12.4651 76.4982 12.4651C75.7021 12.4651 75.1574 11.9832 75.1574 10.9986V6.53631H78.0275V4.33659H75.1783V1.40363L72.6225 1.67598Z" fill="black"/>
<path d="M88.0501 5.74022C87.4635 4.71369 86.1437 4.06425 84.761 4.06425C81.7443 4.0433 79.3769 5.90782 79.3769 9.46927C79.3769 13.0936 81.6395 14.9791 84.6982 14.9581C85.8504 14.9372 87.4635 14.3506 88.0501 13.1355L88.1758 14.6439H90.585V4.31564H88.1339L88.0501 5.74022ZM84.9915 6.34777C89.0138 6.34777 89.0138 12.6117 84.9915 12.6117C83.2945 12.6117 81.9328 11.4385 81.9328 9.46927C81.9328 7.5 83.2945 6.34777 84.9915 6.34777Z" fill="black"/>
<path d="M100.119 11.648C99.4901 12.2765 98.6731 12.507 97.8561 12.507C96.2639 12.507 94.9231 11.4595 94.9231 9.49022C94.9231 7.68855 96.1801 6.43156 97.898 6.43156C98.6103 6.43156 99.3644 6.70391 99.972 7.2486L101.585 5.55168C100.454 4.44134 99.3225 4.02235 97.8561 4.02235C94.8603 4.02235 92.3672 5.82402 92.3672 9.49022C92.3672 13.1564 94.8603 14.9581 97.8561 14.9581C99.3854 14.9581 100.642 14.4972 101.837 13.324L100.119 11.648Z" fill="black"/>
<path d="M102.896 0V14.6439H105.452V9.97207L109.495 14.6439H112.575V14.4553L107.777 9.17598L111.988 4.46229V4.31564H108.929L105.452 8.46369V0H102.896Z" fill="black"/>
</g>
</svg>
