<svg width="25" height="25" viewBox="0 0 25 25" fill="none" xmlns="http://www.w3.org/2000/svg">
<path fill-rule="evenodd" clip-rule="evenodd" d="M25 12.5C25 19.4036 19.4036 25 12.5 25C5.59644 25 0 19.4036 0 12.5C0 5.59644 5.59644 0 12.5 0C19.4036 0 25 5.59644 25 12.5ZM19.9691 18.6592V13.5057C19.9691 10.746 18.4954 9.46167 16.5296 9.46167C14.942 9.46167 14.2338 10.3351 13.8368 10.9461V9.67269H10.8485C10.8886 10.5156 10.8485 18.659 10.8485 18.659H13.8365V13.6401C13.8365 13.3707 13.8568 13.104 13.9355 12.9119C14.1521 12.3744 14.6425 11.8194 15.4681 11.8194C16.5499 11.8194 16.9813 12.6438 16.9813 13.8511V18.6592H19.9691ZM13.8368 10.9461V10.9755H13.8169C13.8198 10.9705 13.8235 10.9653 13.8273 10.9601C13.8306 10.9555 13.8339 10.9508 13.8368 10.9461ZM6.0319 6.8934C6.0319 6.01191 6.7006 5.34098 7.72269 5.34098C8.74501 5.34098 9.37315 6.01191 9.39298 6.8934C9.39298 7.75618 8.74501 8.44649 7.70286 8.44649H7.68348C6.68121 8.44649 6.0319 7.75618 6.0319 6.8934ZM9.19645 18.6592H6.20949V9.67269H9.19645V18.6592Z" fill="#312A28"/>
</svg>
