<svg width="176" height="45" viewBox="0 0 176 45" fill="none" xmlns="http://www.w3.org/2000/svg">
<path d="M65.7372 28.6276C66.4978 20.5013 62.3746 16.4181 55.7695 16.4181C49.3645 16.4181 45.2814 20.7415 45.2814 26.7461C45.2814 33.071 49.3245 37.2743 56.1298 37.2743C59.1321 37.2743 62.5347 36.2335 64.6164 34.0718L61.4939 30.9894C60.3731 32.1503 58.0112 32.8308 56.2098 32.8308C52.7672 32.8308 50.6455 31.0695 50.3253 28.6276H65.7372ZM50.4053 24.5844C51.1259 22.0224 53.2876 20.7415 55.9296 20.7415C58.7318 20.7415 60.7333 22.0224 61.0536 24.5844H50.4053Z" fill="#999999"/>
<path d="M69.5004 17.0186V36.7539H74.3842V26.3458C74.3842 22.703 76.7461 21.3419 79.308 21.3419C80.9093 21.3419 81.83 21.7823 82.8308 22.6229L85.0325 18.3796C83.9516 17.2988 81.9901 16.4982 79.9485 16.4982C77.947 16.4982 75.9054 16.8584 74.3842 19.3003L74.024 17.0186H69.5004Z" fill="#999999"/>
<path d="M97.7861 21.1017C100.909 21.1017 103.39 23.3034 103.39 26.8662C103.39 30.3089 100.909 32.6707 97.7861 32.6707C94.7037 32.6707 92.0617 30.429 92.0617 26.8662C92.0617 23.4235 94.7037 21.1017 97.7861 21.1017ZM86.8576 8.77218V36.7539H91.4212L91.7414 34.0318C93.2626 36.3936 95.7045 37.1942 98.1064 37.1942C103.911 37.1942 108.274 33.3512 108.274 26.8662C108.274 20.0609 103.991 16.5382 98.2265 16.5382C96.1448 16.5382 92.9023 17.6591 91.7414 19.7007V8.77218H86.8576Z" fill="#999999"/>
<path d="M116.761 16.9385V36.7539H111.877V16.9385H116.761ZM111.437 11.4543C111.437 15.2572 117.201 15.2572 117.201 11.4543C117.201 7.65131 111.437 7.65131 111.437 11.4543Z" fill="#999999"/>
<path d="M121.181 8.77218V36.7539H126.025V8.77218H121.181Z" fill="#999999"/>
<path d="M135.174 16.9385V36.7539H130.29V16.9385H135.174ZM129.849 11.4543C129.849 15.2572 135.614 15.2572 135.614 11.4543C135.614 7.65131 129.849 7.65131 129.849 11.4543Z" fill="#999999"/>
<path d="M141.595 11.9747V17.0586H137.913V21.2619H141.595V29.7885C141.595 34.7123 144.398 37.1542 148.681 36.994C150.162 36.954 151.323 36.7138 152.724 36.1534L151.363 31.9902C150.642 32.3505 149.762 32.5906 149.001 32.5906C147.48 32.5906 146.439 31.6699 146.439 29.7885V21.2619H151.923V17.0586H146.479V11.4543L141.595 11.9747Z" fill="#999999"/>
<path d="M170.504 17.0186L166.901 25.6653L164.86 31.1095L162.978 25.5452L159.976 17.0186H154.291L162.178 36.4336L158.495 45.0003H163.859L175.908 17.0186H170.504Z" fill="#999999"/>
<path d="M1.01271 19.8205V27.3863C1.01271 33.5111 4.45537 37.0739 9.17904 37.0739C11.9412 37.0739 13.8226 36.1131 15.8642 34.1116L16.1845 36.7936H20.5478V17.0183L15.7041 18.6196V27.1061C15.7041 30.1085 13.6625 32.6304 10.6602 32.6304C7.53776 32.6304 5.89649 30.3486 5.89649 27.3463V18.2192L1.01271 19.8205Z" fill="#999999"/>
<path d="M33.5432 23.7035L29.6602 16.2177L23.8157 17.4186V17.5788L30.3007 26.7459L23.4154 36.6335V36.7536H29.2599L33.5432 30.1485L37.8265 36.7536H43.6711V36.6335L36.7857 26.7459L45.2528 13.4055L37.4262 15.4171L33.5432 23.7035Z" fill="#999999"/>
<path d="M44.5989 2.94513C44.9146 4.8782 43.5871 6.69562 41.6496 6.98279L2.14786 12.8375C1.1081 12.9917 0.145105 12.2602 0.0146313 11.2172C-0.104377 10.2659 0.514197 9.37825 1.4479 9.16054L40.338 0.0926578C42.3161 -0.368579 44.2716 0.940484 44.5989 2.94513Z" fill="#999999"/>
</svg>
