<svg width="60" height="60" viewBox="0 0 60 60" fill="none" xmlns="http://www.w3.org/2000/svg">
<path opacity="0.5" d="M6.50299 55.9006L12.8304 52.9344C14.939 51.9491 17.3667 51.9532 19.5558 52.8406C24.365 54.7827 29.6318 55.3553 34.9794 54.4051C46.017 52.4402 54.8076 43.7297 56.5209 33.1059C59.3688 15.4713 43.7664 0.474173 25.3793 3.35787C14.2597 5.10088 5.27272 13.7385 3.39044 24.4202C2.24101 30.95 3.61394 37.3171 7.13546 42.6897C8.38217 44.595 8.82945 46.8637 8.26896 49.0254L6.50299 55.9006ZM0.443461 23.8983C2.54875 11.951 12.5358 2.33465 24.917 0.393884C45.2913 -2.80148 62.6522 13.912 59.4751 33.5853C57.5542 45.4956 47.7655 55.1759 35.5026 57.3588C29.3886 58.4453 23.5599 57.6918 18.4376 55.6233C17.0352 55.0548 15.4624 55.0145 14.0948 55.6535L5.16905 59.8378C3.9198 60.423 2.53135 59.3332 2.86541 58.0316L5.37088 48.2773C5.72234 46.9218 5.40568 45.5158 4.63316 44.3352C0.861039 38.5802 -0.889309 31.4697 0.443461 23.8983ZM14.9631 19.5C14.9631 20.3042 15.6459 21 16.4882 21H43.364C44.2079 21 44.8892 20.3284 44.8892 19.5C44.8892 18.6958 44.2063 18 43.364 18H16.4882C15.6443 18 14.9631 18.6716 14.9631 19.5ZM14.9631 28.5C14.9631 29.3042 15.6209 30 16.4324 30H31.4493C32.2368 30 32.9187 29.3284 32.9187 28.5C32.9187 27.6958 32.2609 27 31.4493 27H16.4324C15.645 27 14.9631 27.6716 14.9631 28.5ZM14.9631 37.5C14.9631 38.3042 15.6336 39 16.4607 39H37.4063C38.2133 39 38.9039 38.3284 38.9039 37.5C38.9039 36.6958 38.2334 36 37.4063 36H16.4607C15.6537 36 14.9631 36.6716 14.9631 37.5Z" fill="white"/>
</svg>
