<svg width="74" height="60" viewBox="0 0 74 60" fill="none" xmlns="http://www.w3.org/2000/svg">
<path opacity="0.5" d="M68.6015 25.3229H5.12663L35.588 55.8527C36.2927 56.559 37.4354 56.559 38.1402 55.8527L68.6015 25.3229ZM69.5977 21.7224L58.0907 4.423C57.7559 3.9198 57.1925 3.61756 56.589 3.61756H17.1391C16.5357 3.61756 15.9722 3.9198 15.6375 4.423L4.13047 21.7224C4.21174 21.7111 4.29474 21.7053 4.37909 21.7053H69.3491C69.4334 21.7053 69.5164 21.7111 69.5977 21.7224ZM1.58586 26.8902C-0.239059 25.0611 -0.522188 22.1954 0.909399 20.0432L12.6343 2.41634C13.6384 0.906746 15.3289 0 17.1391 0H56.589C58.3993 0 60.0898 0.906746 61.0939 2.41634L72.8188 20.0432C74.2504 22.1954 73.9672 25.0611 72.1423 26.8902L40.6925 58.4107C38.5781 60.5298 35.1501 60.5298 33.0357 58.4107L1.58586 26.8902Z" fill="white"/>
</svg>
