<svg width="60" height="60" viewBox="0 0 60 60" fill="none" xmlns="http://www.w3.org/2000/svg">
<path opacity="0.5" fill-rule="evenodd" clip-rule="evenodd" d="M30 18C30.8284 18 31.5 18.6716 31.5 19.5C31.5 20.3284 30.8284 21 30 21C25.0294 21 21 25.0294 21 30C21 34.9706 25.0294 39 30 39C34.9706 39 39 34.9706 39 30C39 29.1716 39.6716 28.5 40.5 28.5C41.3284 28.5 42 29.1716 42 30C42 36.6274 36.6274 42 30 42C23.3726 42 18 36.6274 18 30C18 23.3726 23.3726 18 30 18ZM30 9C30.8284 9 31.5 9.67157 31.5 10.5C31.5 11.3284 30.8284 12 30 12C20.0589 12 12 20.0589 12 30C12 39.9411 20.0589 48 30 48C39.9411 48 48 39.9411 48 30C48 29.1716 48.6716 28.5 49.5 28.5C50.3284 28.5 51 29.1716 51 30C51 41.598 41.598 51 30 51C18.402 51 9 41.598 9 30C9 18.402 18.402 9 30 9ZM30 0C30.8284 0 31.5 0.671573 31.5 1.5C31.5 2.32843 30.8284 3 30 3C15.0883 3 3 15.0883 3 30C3 44.9117 15.0883 57 30 57C44.9117 57 57 44.9117 57 30C57 29.1716 57.6716 28.5 58.5 28.5C59.3284 28.5 60 29.1716 60 30C60 46.5685 46.5685 60 30 60C13.4315 60 0 46.5685 0 30C0 13.4315 13.4315 0 30 0ZM30 33C28.3431 33 27 31.6569 27 30C27 28.3431 28.3431 27 30 27C31.6569 27 33 28.3431 33 30C33 31.6569 31.6569 33 30 33Z" fill="white"/>
</svg>
